Coordinates
version=1
nRows=10
nColumns=63
inDegrees=yes

Units are S.I. units (second, meters, Newtons, ...)
If the header above contains a line with 'inDegrees', this indicates whether rotational values are in degrees (yes) or radians (no).

endheader
time	pelvis_tilt	pelvis_list	pelvis_rotation	pelvis_tx	pelvis_ty	pelvis_tz	hip_flexion_r	hip_adduction_r	hip_rotation_r	knee_angle_r	knee_angle_r_beta	ankle_angle_r	subtalar_angle_r	mtp_angle_r	hip_flexion_l	hip_adduction_l	hip_rotation_l	knee_angle_l	knee_angle_l_beta	ankle_angle_l	subtalar_angle_l	mtp_angle_l	L5_S1_Flex_Ext	L5_S1_Lat_Bending	L5_S1_axial_rotation	L4_L5_Flex_Ext	L4_L5_Lat_Bending	L4_L5_axial_rotation	L3_L4_Flex_Ext	L3_L4_Lat_Bending	L3_L4_axial_rotation	L2_L3_Flex_Ext	L2_L3_Lat_Bending	L2_L3_axial_rotation	L1_L2_Flex_Ext	L1_L2_Lat_Bending	L1_L2_axial_rotation	L1_T12_Flex_Ext	L1_T12_Lat_Bending	L1_T12_axial_rotation	Abs_r3	Abs_r2	Abs_r1	Abs_t1	Abs_t2	neck_flexion	neck_bending	neck_rotation	arm_flex_r	arm_add_r	arm_rot_r	elbow_flex_r	pro_sup_r	wrist_flex_r	wrist_dev_r	arm_flex_l	arm_add_l	arm_rot_l	elbow_flex_l	pro_sup_l	wrist_flex_l	wrist_dev_l
      4.47619048	     -4.99003617	     -9.25870491	     81.46629768	      0.20705698	      0.36895370	      0.94341040	     11.33847619	     -3.56181062	    -15.34971313	     14.61923813	      0.25515384	     27.34537815	      2.45789438	      0.00000000	     12.07075174	      0.91957412	     -3.00760014	     11.39907903	      0.19895146	     30.36138040	     12.20628642	      0.00000000	      0.13643811	      0.24133646	     -2.12517845	      0.25337921	      0.32097750	     -2.25800211	      0.22415417	      0.58678548	     -2.25800211	      0.15593512	      0.58678548	     -1.85953115	      0.12669643	      0.49213332	     -1.72670749	      0.07796074	      0.37383018	     -1.59388384	      0.97456377	      2.73004636	    -11.81960501	      0.00000000	      0.00000000	     24.43868171	      4.61899859	     -0.74518078	      1.95910712	    -17.52225824	     24.77050147	     72.47010163	     87.84790912	     -1.23711032	      4.73568638	      6.20015428	    -10.31834868	     39.89019217	     69.16793795	     74.29417573	     -5.68579054	      5.03581494
      4.50000000	     -5.01633487	     -9.23452617	     81.86354764	      0.20734817	      0.36879866	      0.94217462	     11.27443351	     -3.62138353	    -15.82773046	     14.61458858	      0.25507269	     27.51715439	      2.35396105	      0.00000000	     11.90037823	      1.03838988	     -2.17048578	     11.09266836	      0.19360359	     30.20349242	     11.72888291	      0.00000000	      0.14918839	      0.21698012	     -2.16190027	      0.27705775	      0.28858356	     -2.29701904	      0.24510160	      0.52756546	     -2.29701904	      0.17050741	      0.52756546	     -1.89166274	      0.13853633	      0.44246586	     -1.75654397	      0.08524624	      0.33610221	     -1.62142521	      1.06563772	      2.45452252	    -12.02384075	      0.00000000	      0.00000000	     25.00188322	      4.88833167	     -1.58676374	      1.33401981	    -17.63101514	     24.78218377	     72.36759277	     87.25844983	      0.06892600	      5.91388725	      5.86824161	    -10.62280170	     39.78740293	     69.10630614	     76.19442154	     -5.03113318	      5.00809809
      4.52380952	     -5.07884808	     -9.36554256	     82.18778982	      0.20767910	      0.36832605	      0.94118159	     11.39372275	     -3.65729083	    -16.02850388	     14.55897499	      0.25410205	     27.65423665	      2.05686496	      0.00000000	     11.99536658	      1.13203009	     -1.61455820	     10.91062024	      0.19042625	     30.11968877	     11.47200720	      0.00000000	      0.16588257	      0.18759772	     -2.25751063	      0.30806051	      0.24950497	     -2.39860505	      0.27252847	      0.45612510	     -2.39860505	      0.18958719	      0.45612510	     -1.97532180	      0.15403855	      0.38254928	     -1.83422739	      0.09478530	      0.29058887	     -1.69313297	      1.18488259	      2.12214296	    -12.55559688	      0.00000000	      0.00000000	     25.75556053	      5.39053109	     -2.36636012	      0.97253054	    -17.65562240	     25.76393689	     72.15538425	     86.63921636	      1.67735601	      6.89880752	      5.22511474	    -11.26499859	     39.63267209	     69.31423196	     77.66015066	     -4.55248097	      4.22664999
      4.54761905	     -5.06801274	     -9.56493348	     82.45735206	      0.20768359	      0.36767302	      0.94001017	     11.62641326	     -3.63830938	    -16.05186482	     14.61605460	      0.25509828	     27.73915917	      1.55353074	      0.00000000	     12.18725958	      1.18810374	     -0.72793047	     10.84621609	      0.18930218	     29.96558806	     10.71975138	      0.00000000	      0.18449102	      0.17926041	     -2.38049703	      0.34261828	      0.23841634	     -2.52927810	      0.30310030	      0.43585376	     -2.52927810	      0.21085479	      0.43585376	     -2.08293490	      0.17131836	      0.36554782	     -1.93415384	      0.10541817	      0.27767437	     -1.78537278	      1.31780093	      2.02782959	    -13.23961035	      0.00000000	      0.00000000	     26.31621468	      5.44988496	     -2.70810826	      0.85141742	    -17.63474936	     26.98267954	     71.83231687	     86.42666879	      4.68690186	      7.78378903	      4.24012513	    -11.76456299	     38.98578606	     69.69406778	     80.34227371	     -3.99274081	      3.53965244
      4.57142857	     -4.90106576	     -9.77238755	     82.70043661	      0.20756658	      0.36691682	      0.93840140	     11.74938355	     -3.41266542	    -15.75231468	     14.53406083	      0.25366722	     27.63140971	      0.64195915	      0.00000000	     12.25249832	      1.16394909	      0.99301504	     10.73525400	      0.18736553	     29.53631298	      8.97845119	      0.00000000	      0.20480598	      0.19725847	     -2.49727992	      0.38034519	      0.26235376	     -2.65335991	      0.33647575	      0.47961424	     -2.65335991	      0.23407276	      0.47961424	     -2.18511993	      0.19018283	      0.40224947	     -2.02903993	      0.11702614	      0.30555337	     -1.87295994	      1.46290865	      2.23142725	    -13.88912171	      0.00000000	      0.00000000	     26.63959481	      5.29743862	     -2.33067818	      0.73163013	    -17.59560230	     28.12964394	     71.60712791	     86.82340590	      8.14443832	      8.46006650	      3.15563350	    -12.02147294	     38.13192872	     70.05585599	     83.36568631	     -3.07449331	      3.58392567
      4.59523810	     -4.58468376	     -9.96279518	     82.77175751	      0.20730301	      0.36597722	      0.93709350	     11.92461837	     -3.04824273	    -15.48181953	     14.62170141	      0.25519683	     27.45443586	     -0.25090732	      0.00000000	     12.32060552	      0.95911178	      2.24674152	     10.85119929	      0.18938916	     28.98844792	      7.23759974	      0.00000000	      0.21558575	      0.23287266	     -2.60649221	      0.40036430	      0.30972064	     -2.76939798	      0.35418583	      0.56620659	     -2.76939798	      0.24639296	      0.56620659	     -2.28068069	      0.20019293	      0.47487394	     -2.11777492	      0.12318570	      0.36071976	     -1.95486916	      1.53990747	      2.63430215	    -14.49652775	      0.00000000	      0.00000000	     26.86069469	      4.69818369	     -2.18475589	      0.97959982	    -17.71822766	     29.87392008	     71.36673695	     87.35560351	     11.06396330	      8.95291600	      2.17079337	    -12.16108126	     37.48288094	     70.25004204	     84.66118859	     -2.79365467	      2.91692101
      4.61904762	     -4.16514881	    -10.16632466	     82.67119842	      0.20734203	      0.36483399	      0.93644397	     12.11598045	     -2.54119223	    -15.24359576	     14.70222072	      0.25660216	     27.21229794	     -0.76497227	      0.00000000	     12.47595543	      0.55255398	      3.07616668	     11.17742795	      0.19508292	     28.64671669	      6.09406997	      0.00000000	      0.22257201	      0.27430939	     -2.66825999	      0.41333849	      0.36483149	     -2.83502624	      0.36566356	      0.66695586	     -2.83502624	      0.25437756	      0.66695586	     -2.33472749	      0.20668037	      0.55937172	     -2.16796124	      0.12717765	      0.42490525	     -2.00119499	      1.58980964	      3.10304273	    -14.84006157	      0.00000000	      0.00000000	     27.03748055	      3.86557049	     -2.10728545	      1.17129935	    -17.71214185	     31.41469017	     71.00128770	     87.62991248	     13.04684431	      9.02609033	      1.50556681	    -12.15938900	     37.04195039	     70.26294717	     85.52450089	     -3.20998109	      1.26456970
      4.64285714	     -3.73620031	    -10.22072254	     82.55312804	      0.20739646	      0.36392818	      0.93626271	     12.19260062	     -2.03325936	    -15.09071410	     14.82254893	      0.25870228	     26.89355372	     -1.47227410	      0.00000000	     12.51187363	      0.20668660	      4.24168473	     11.48394879	      0.20043272	     28.46744695	      4.27146921	      0.00000000	      0.20815777	      0.30927022	     -2.67565597	      0.38656980	      0.41132939	     -2.84288447	      0.34198240	      0.75195961	     -2.84288447	      0.23790352	      0.75195961	     -2.34119898	      0.19329531	      0.63066383	     -2.17397048	      0.11894135	      0.47905957	     -2.00674198	      1.48685015	      3.49852657	    -14.88119582	      0.00000000	      0.00000000	     27.05737552	      2.79464560	     -2.21760288	      1.38426725	    -17.62947235	     32.34248618	     70.40003159	     87.44875507	     13.85662722	      8.32218023	      1.44956744	    -12.02773270	     37.08842144	     69.98484260	     86.17781532	     -4.19058234	     -1.09108225
      4.66666667	     -3.41176025	    -10.22031901	     82.07143704	      0.20813007	      0.36326192	      0.93653047	     12.32689933	     -1.61741645	    -15.09358712	     15.02122241	      0.26216979	     26.72454457	     -1.54139153	      0.00000000	     12.34610985	      0.02536665	      6.65657724	     11.42230431	      0.19935682	     28.09301056	      0.62343234	      0.00000000	      0.19302643	      0.32469462	     -2.55018097	      0.35846938	      0.43184385	     -2.70956728	      0.31712312	      0.78946251	     -2.70956728	      0.22060990	      0.78946251	     -2.23140835	      0.17924434	      0.66211728	     -2.07202204	      0.11029530	      0.50295197	     -1.91263573	      1.37876847	      3.67301053	    -14.18334151	      0.00000000	      0.00000000	     26.91526897	      1.07481727	     -3.05013025	      1.92573847	    -17.81948554	     32.90604896	     69.97741296	     86.63432879	     13.11619817	      7.31195852	      1.73992871	    -11.98641317	     37.29082760	     69.91708988	     86.31565527	     -4.61055531	     -2.33183699
      4.69047619	     -2.99668243	    -10.19197342	     81.62151960	      0.20957852	      0.36285057	      0.93724431	     12.37691777	     -1.05564898	    -15.26121525	     15.02706862	      0.26227182	     26.64645654	     -1.35970801	      0.00000000	     12.32511944	     -0.50557145	      6.84886634	     11.62521247	      0.20289823	     28.42124588	      0.29147908	      0.00000000	      0.17576245	      0.33093614	     -2.37083948	      0.32640844	      0.44014507	     -2.51901695	      0.28876012	      0.80463813	     -2.51901695	      0.20087890	      0.80463813	     -2.07448455	      0.16321301	      0.67484498	     -1.92630708	      0.10043066	      0.51262008	     -1.77812961	      1.25545357	      3.74361580	    -13.18589795	      0.00000000	      0.00000000	     26.73474291	     -1.15443792	     -4.59852361	      2.98593632	    -18.77427606	     33.56237103	     70.57136445	     86.03717636	     11.52947910	      6.42277225	      2.14533213	    -12.23935802	     37.59662541	     69.99642983	     86.45464842	     -4.17553585	     -2.96806499
